ply
format ascii 1.0
comment VCGLIB generated
element vertex 76
property float x
property float y
property float z
element face 150
property list uchar int vertex_indices
end_header
-2.74884 1.03481 18.51 
-1.91582 1.36833 19.2638 
-3.14289 -1.61946 19.0781 
-2.53865 0.129773 18.9883 
-3.42288 -0.978375 19.5706 
-1.4263 -6.62677 19.5427 
-1.48107 -5.44446 19.8895 
-3.85356 -1.62549 19.2973 
-0.0602449 -6.96103 19.7605 
-2.17171 -2.50331 19.9372 
-3.20553 -2.80183 20.5617 
-2.47338 -3.71536 20.2653 
-0.110304 -5.02703 20.0976 
-1.74823 -5.33523 21.3751 
-0.541955 -4.85902 21.4293 
-0.924737 -4.3548 20.8526 
-0.63043 -2.42891 20.6089 
0.770546 -2.9047 21.4687 
-2.28687 -3.94392 21.8933 
-1.32963 -7.01969 21.1351 
-2.07223 -2.77037 21.0938 
-0.855168 0.472418 21.7306 
-0.0751857 -6.35095 21.3108 
-1.802 -4.95989 22.1256 
-1.24973 -5.36867 21.7446 
0.68544 0.21803 22.384 
-1.75187 -0.184433 22.1279 
-1.85411 1.69648 22.5962 
-0.535946 2.20753 22.6012 
0.544524 -4.93311 22.4087 
1.35359 -4.19162 22.8514 
0.486644 -4.00724 23.1287 
0.74893 -5.0202 23.4612 
-0.750409 -3.01964 23.6076 
0.957092 -1.7493 23.0197 
-2.28893 3.56903 24.2645 
-1.71136 -1.334 22.7804 
-1.46737 3.59822 23.246 
0.410796 0.986143 22.9935 
1.31951 -0.0300838 23.8425 
2.19601 -4.14133 23.9923 
2.483 -4.54003 24.6005 
-1.54618 5.13103 24.2347 
-0.0961345 -4.40927 23.5131 
-2.21668 7.69078 24.9562 
-1.46298 1.24329 24.182 
-1.48822 8.47802 24.8419 
-2.09529 0.460876 23.4594 
-2.02464 9.0575 24.1663 
3.06349 -2.44307 24.4298 
-0.309371 1.26723 23.9391 
1.16779 2.52257 25.0204 
-0.677168 2.78048 24.1692 
-0.874705 -0.0707691 24.8399 
3.51798 -1.41771 24.8951 
1.85628 -4.1061 24.7416 
1.10096 -0.163772 24.771 
0.196626 -1.87136 23.9657 
-1.87356 7.14251 25.3354 
3.531 -2.54765 24.8501 
-2.71593 5.40761 24.3554 
-1.6092 4.34736 25.0122 
-2.59877 5.78399 25.2818 
-0.135119 2.81138 26.5094 
-2.69652 8.06733 25.9871 
0.212668 0.565103 25.4313 
0.111599 3.87659 26.5609 
0.973076 2.01503 26.1651 
1.06248 3.84345 26.4826 
0.567393 5.20959 28.1471 
2.93527 7.06317 27.5823 
1.4 6.34898 27.9802 
0.979255 3.59212 27.6541 
1.65591 6.0409 28.3227 
2.67495 6.56612 28.6363 
1.08075 6.81113 29.0091 
3 3 0 1 
3 0 2 4 
3 2 7 4 
3 2 0 3 
3 4 3 0 
3 1 0 3 
3 7 2 11 
3 2 3 4 
3 6 8 5 
3 10 7 11 
3 11 2 9 
3 20 2 4 
3 9 2 20 
3 6 12 8 
3 7 10 4 
3 15 11 9 
3 5 8 19 
3 20 4 10 
3 16 15 9 
3 12 22 8 
3 12 6 15 
3 13 6 5 
3 19 13 5 
3 12 15 14 
3 16 9 20 
3 15 6 13 
3 22 12 14 
3 16 17 15 
3 19 8 22 
3 18 20 10 
3 13 18 15 
3 11 15 18 
3 10 11 18 
3 25 17 16 
3 21 16 20 
3 13 19 24 
3 19 22 24 
3 14 24 22 
3 20 26 21 
3 23 13 24 
3 21 25 16 
3 18 13 23 
3 26 20 36 
3 20 18 36 
3 14 15 29 
3 17 29 15 
3 17 25 34 
3 13 24 23 
3 24 14 23 
3 24 13 23 
3 27 21 26 
3 30 17 31 
3 17 30 29 
3 25 21 38 
3 47 27 26 
3 27 28 21 
3 14 29 32 
3 17 34 31 
3 28 38 21 
3 23 14 32 
3 37 28 27 
3 36 18 33 
3 36 47 26 
3 27 35 37 
3 23 33 18 
3 38 28 50 
3 57 31 34 
3 34 25 39 
3 33 23 43 
3 43 23 32 
3 35 27 47 
3 33 31 57 
3 28 37 52 
3 33 43 31 
3 50 28 52 
3 37 42 52 
3 39 25 38 
3 36 33 57 
3 30 41 29 
3 40 30 31 
3 30 40 41 
3 36 57 53 
3 52 45 50 
3 60 42 37 
3 47 36 53 
3 50 51 38 
3 39 38 51 
3 35 60 37 
3 41 32 29 
3 45 35 47 
3 44 48 46 
3 40 31 55 
3 34 39 56 
3 50 45 53 
3 34 56 57 
3 40 55 49 
3 49 59 40 
3 60 44 42 
3 41 40 59 
3 47 53 45 
3 43 32 41 
3 55 31 43 
3 45 52 61 
3 45 61 35 
3 44 58 42 
3 59 49 54 
3 43 41 55 
3 52 42 61 
3 59 49 55 
3 61 42 58 
3 59 54 49 
3 35 62 60 
3 56 39 67 
3 55 41 59 
3 53 57 65 
3 62 44 60 
3 57 56 65 
3 48 44 64 
3 50 53 63 
3 35 61 62 
3 46 58 44 
3 39 51 67 
3 65 63 53 
3 51 50 66 
3 68 51 66 
3 64 44 62 
3 62 61 58 
3 66 50 63 
3 67 65 56 
3 46 48 64 
3 46 64 58 
3 58 64 62 
3 67 51 68 
3 63 65 67 
3 67 68 72 
3 66 71 68 
3 63 67 72 
3 63 69 66 
3 63 72 69 
3 71 66 69 
3 71 72 68 
3 73 70 74 
3 71 70 73 
3 71 73 72 
3 75 70 71 
3 74 70 75 
3 69 72 73 
3 75 71 69 
3 69 73 75 
3 75 73 74 
